<svg width="38" height="38" viewBox="0 0 38 38" fill="none" xmlns="http://www.w3.org/2000/svg">
<path d="M7.125 10.0938C7.125 8.36156 7.81311 6.70031 9.03796 5.47546C10.2628 4.25061 11.9241 3.5625 13.6562 3.5625C15.3884 3.5625 17.0497 4.25061 18.2745 5.47546C19.4994 6.70031 20.1875 8.36156 20.1875 10.0938C20.1875 11.8259 19.4994 13.4872 18.2745 14.712C17.0497 15.9369 15.3884 16.625 13.6562 16.625C11.9241 16.625 10.2628 15.9369 9.03796 14.712C7.81311 13.4872 7.125 11.8259 7.125 10.0938ZM22.5625 13.6562C22.5625 12.9545 22.7007 12.2596 22.9693 11.6113C23.2378 10.963 23.6314 10.3739 24.1276 9.87765C24.6239 9.38143 25.213 8.98782 25.8613 8.71927C26.5096 8.45072 27.2045 8.3125 27.9062 8.3125C28.608 8.3125 29.3029 8.45072 29.9512 8.71927C30.5996 8.98782 31.1886 9.38143 31.6849 9.87765C32.1811 10.3739 32.5747 10.963 32.8432 11.6113C33.1118 12.2596 33.25 12.9545 33.25 13.6562C33.25 15.0735 32.687 16.4327 31.6849 17.4349C30.6827 18.437 29.3235 19 27.9062 19C26.489 19 25.1298 18.437 24.1276 17.4349C23.1255 16.4327 22.5625 15.0735 22.5625 13.6562ZM2.375 30.2812C2.375 27.2893 3.56356 24.4198 5.6792 22.3042C7.79485 20.1886 10.6643 19 13.6562 19C16.6482 19 19.5177 20.1886 21.6333 22.3042C23.7489 24.4198 24.9375 27.2893 24.9375 30.2812V30.286L24.9359 30.4744C24.9326 30.6758 24.878 30.873 24.7775 31.0475C24.677 31.222 24.5337 31.368 24.3612 31.4719C21.1299 33.4178 17.4282 34.4433 13.6562 34.4375C9.74225 34.4375 6.07842 33.3545 2.95292 31.4719C2.7801 31.3682 2.63651 31.2222 2.53569 31.0477C2.43486 30.8732 2.38011 30.6759 2.37658 30.4744L2.375 30.2812ZM27.3125 30.286L27.3109 30.514C27.3021 31.0417 27.1761 31.5609 26.942 32.034C29.706 32.2045 32.4669 31.6534 34.9537 30.4348C35.146 30.3408 35.3093 30.1966 35.4264 30.0174C35.5434 29.8382 35.6099 29.6306 35.6187 29.4168C35.6746 28.0887 35.3866 26.7687 34.7825 25.5847C34.1785 24.4006 33.279 23.3926 32.171 22.6583C31.0631 21.924 29.7843 21.4882 28.4585 21.3932C27.1326 21.2982 25.8048 21.5471 24.6034 22.116C26.366 24.4729 27.3161 27.3382 27.3109 30.2812L27.3125 30.286Z" fill="#FFA800"/>
</svg>
