<svg width="26" height="26" viewBox="0 0 26 26" fill="none" xmlns="http://www.w3.org/2000/svg">
<path fill-rule="evenodd" clip-rule="evenodd" d="M6.1054 4.95625C6.25755 5.10859 6.34301 5.3151 6.34301 5.53041C6.34301 5.74573 6.25755 5.95224 6.1054 6.10458C5.19985 7.00997 4.48152 8.08488 3.99144 9.26791C3.50135 10.4509 3.2491 11.7189 3.2491 12.9995C3.2491 14.28 3.50135 15.548 3.99144 16.731C4.48152 17.914 5.19985 18.9889 6.1054 19.8943C6.24892 20.0484 6.32705 20.2521 6.32334 20.4626C6.31962 20.6731 6.23435 20.8739 6.08549 21.0228C5.93662 21.1716 5.73579 21.2569 5.5253 21.2606C5.3148 21.2643 5.11109 21.1862 4.95706 21.0427C0.514313 16.601 0.514313 9.399 4.95706 4.95625C5.10941 4.80409 5.31592 4.71863 5.53123 4.71863C5.74654 4.71863 5.95305 4.80409 6.1054 4.95625ZM19.8941 4.95625C20.0464 4.80409 20.2529 4.71863 20.4682 4.71863C20.6835 4.71863 20.8901 4.80409 21.0424 4.95625C25.4851 9.39791 25.4851 16.601 21.0424 21.0437C20.9674 21.1213 20.8777 21.1832 20.7786 21.2257C20.6794 21.2682 20.5728 21.2906 20.4649 21.2915C20.357 21.2924 20.2501 21.2718 20.1502 21.2309C20.0504 21.19 19.9597 21.1296 19.8834 21.0533C19.8072 20.9769 19.7469 20.8862 19.7061 20.7863C19.6653 20.6865 19.6448 20.5795 19.6458 20.4716C19.6468 20.3637 19.6692 20.2571 19.7119 20.158C19.7545 20.0589 19.8164 19.9692 19.8941 19.8943C20.7994 18.989 21.5176 17.9141 22.0076 16.7312C22.4976 15.5483 22.7498 14.2804 22.7498 13C22.7498 11.7196 22.4976 10.4517 22.0076 9.26881C21.5176 8.08587 20.7994 7.01104 19.8941 6.10566C19.7419 5.95332 19.6564 5.74681 19.6564 5.5315C19.6564 5.31618 19.7419 5.10967 19.8941 4.95733V4.95625ZM8.40315 7.254C8.47865 7.32945 8.53854 7.41904 8.57941 7.51765C8.62027 7.61627 8.64131 7.72196 8.64131 7.8287C8.64131 7.93545 8.62027 8.04114 8.57941 8.13976C8.53854 8.23837 8.47865 8.32796 8.40315 8.40341C7.18425 9.62239 6.49949 11.2756 6.49949 12.9995C6.49949 14.7233 7.18425 16.3765 8.40315 17.5955C8.55122 17.7487 8.63322 17.9539 8.63147 18.1669C8.62972 18.3799 8.54436 18.5838 8.39379 18.7345C8.24322 18.8852 8.03947 18.9707 7.82643 18.9727C7.6134 18.9746 7.40812 18.8928 7.25481 18.7449C6.50027 17.9904 5.90173 17.0947 5.49338 16.1089C5.08502 15.1231 4.87484 14.0665 4.87484 12.9995C4.87484 11.9324 5.08502 10.8758 5.49338 9.89001C5.90173 8.9042 6.50027 8.00848 7.25481 7.254C7.40716 7.10184 7.61367 7.01638 7.82898 7.01638C8.04429 7.01638 8.2508 7.10184 8.40315 7.254ZM17.5963 7.254C17.7487 7.10184 17.9552 7.01638 18.1705 7.01638C18.3858 7.01638 18.5923 7.10184 18.7446 7.254C19.4992 8.00848 20.0977 8.9042 20.5061 9.89001C20.9144 10.8758 21.1246 11.9324 21.1246 12.9995C21.1246 14.0665 20.9144 15.1231 20.5061 16.1089C20.0977 17.0947 19.4992 17.9904 18.7446 18.7449C18.5906 18.8884 18.3869 18.9666 18.1764 18.9629C17.9659 18.9591 17.7651 18.8739 17.6162 18.725C17.4674 18.5761 17.3821 18.3753 17.3784 18.1648C17.3747 17.9543 17.4528 17.7506 17.5963 17.5966C18.2 16.993 18.6789 16.2764 19.0056 15.4877C19.3323 14.699 19.5005 13.8537 19.5005 13C19.5005 12.1463 19.3323 11.301 19.0056 10.5123C18.6789 9.72361 18.2 9.00701 17.5963 8.40341C17.4442 8.25107 17.3587 8.04456 17.3587 7.82925C17.3587 7.61393 17.4442 7.40634 17.5963 7.254ZM10.702 9.55283C10.8541 9.70517 10.9396 9.91168 10.9396 10.127C10.9396 10.3423 10.8541 10.5488 10.702 10.7012C10.4001 11.003 10.1607 11.3613 9.99733 11.7556C9.83396 12.15 9.74988 12.5726 9.74988 12.9995C9.74988 13.4263 9.83396 13.849 9.99733 14.2433C10.1607 14.6376 10.4001 14.9959 10.702 15.2977C10.7795 15.3727 10.8414 15.4624 10.8839 15.5616C10.9265 15.6607 10.9488 15.7673 10.9497 15.8752C10.9506 15.9831 10.93 16.0901 10.8891 16.1899C10.8482 16.2898 10.7878 16.3804 10.7115 16.4567C10.6352 16.5329 10.5444 16.5932 10.4446 16.634C10.3447 16.6748 10.2377 16.6954 10.1298 16.6944C10.0219 16.6934 9.91532 16.6709 9.81621 16.6283C9.7171 16.5857 9.62748 16.5237 9.55256 16.4461C8.63864 15.5319 8.12523 14.2921 8.12523 12.9995C8.12523 11.7068 8.63864 10.467 9.55256 9.55283C9.70491 9.40067 9.91142 9.31521 10.1267 9.31521C10.342 9.31521 10.5496 9.40067 10.702 9.55283ZM15.2975 9.55283C15.3729 9.47733 15.4625 9.41743 15.5611 9.37657C15.6597 9.3357 15.7654 9.31467 15.8722 9.31467C15.9789 9.31467 16.0846 9.3357 16.1832 9.37657C16.2818 9.41743 16.3714 9.47733 16.4469 9.55283C16.8996 10.0055 17.2587 10.5429 17.5037 11.1344C17.7487 11.7259 17.8748 12.3598 17.8748 13C17.8748 13.6402 17.7487 14.2741 17.5037 14.8656C17.2587 15.4571 16.8996 15.9945 16.4469 16.4472C16.2929 16.5907 16.0892 16.6688 15.8787 16.6651C15.6682 16.6614 15.4673 16.5761 15.3185 16.4273C15.1696 16.2784 15.0843 16.0776 15.0806 15.8671C15.0769 15.6566 15.155 15.4529 15.2986 15.2988C15.6006 14.997 15.8402 14.6386 16.0036 14.2442C16.1671 13.8498 16.2512 13.427 16.2512 13C16.2512 12.573 16.1671 12.1502 16.0036 11.7558C15.8402 11.3614 15.6006 11.003 15.2986 10.7012C15.1464 10.5488 15.0609 10.3423 15.0609 10.127C15.0609 9.91168 15.1453 9.70517 15.2975 9.55283ZM11.781 13C11.781 12.6768 11.9094 12.3668 12.1379 12.1382C12.3665 11.9097 12.6765 11.7812 12.9997 11.7812C13.323 11.7812 13.633 11.9097 13.8615 12.1382C14.0901 12.3668 14.2185 12.6768 14.2185 13C14.2185 13.3232 14.0901 13.6332 13.8615 13.8618C13.633 14.0903 13.323 14.2187 12.9997 14.2187C12.6765 14.2187 12.3665 14.0903 12.1379 13.8618C11.9094 13.6332 11.781 13.3232 11.781 13Z" fill="white"/>
</svg>
