<svg width="42" height="42" viewBox="0 0 42 42" fill="none" xmlns="http://www.w3.org/2000/svg">
<path fill-rule="evenodd" clip-rule="evenodd" d="M3.9375 21C3.9375 11.5762 11.5762 3.9375 21 3.9375C30.4237 3.9375 38.0625 11.5762 38.0625 21C38.0625 30.4237 30.4237 38.0625 21 38.0625C11.5762 38.0625 3.9375 30.4237 3.9375 21ZM19.173 18.4765C21.1785 17.4737 23.4377 19.2867 22.8935 21.462L21.6528 26.425L21.7262 26.39C22.0346 26.2544 22.3833 26.2426 22.7002 26.357C23.017 26.4714 23.2777 26.7033 23.4284 27.0046C23.579 27.3059 23.6081 27.6535 23.5095 27.9757C23.4109 28.2978 23.1922 28.5696 22.8988 28.735L22.8288 28.7735C20.8215 29.7762 18.5623 27.9632 19.1065 25.788L20.349 20.825L20.2755 20.86C20.1207 20.946 19.9501 20.9998 19.7739 21.0182C19.5978 21.0366 19.4197 21.0191 19.2505 20.9668C19.0813 20.9145 18.9244 20.8285 18.7893 20.714C18.6542 20.5995 18.5436 20.4588 18.4643 20.3004C18.385 20.1421 18.3386 19.9693 18.3278 19.7925C18.3171 19.6157 18.3422 19.4386 18.4017 19.2718C18.4612 19.105 18.5539 18.9519 18.6741 18.8219C18.7943 18.6918 18.9396 18.5874 19.1012 18.515L19.173 18.4765ZM21 15.75C21.3481 15.75 21.6819 15.6117 21.9281 15.3656C22.1742 15.1194 22.3125 14.7856 22.3125 14.4375C22.3125 14.0894 22.1742 13.7556 21.9281 13.5094C21.6819 13.2633 21.3481 13.125 21 13.125C20.6519 13.125 20.3181 13.2633 20.0719 13.5094C19.8258 13.7556 19.6875 14.0894 19.6875 14.4375C19.6875 14.7856 19.8258 15.1194 20.0719 15.3656C20.3181 15.6117 20.6519 15.75 21 15.75Z" fill="#FFA800"/>
</svg>
