<svg width="42" height="42" viewBox="0 0 42 42" fill="none" xmlns="http://www.w3.org/2000/svg">
<path fill-rule="evenodd" clip-rule="evenodd" d="M9.84375 2.625H15.75C17.4905 2.625 19.1597 3.3164 20.3904 4.54711C21.6211 5.77782 22.3125 7.44702 22.3125 9.1875V12.4688C22.3125 14.2817 23.7825 15.75 25.5938 15.75H28.875C30.6155 15.75 32.2847 16.4414 33.5154 17.6721C34.7461 18.9028 35.4375 20.572 35.4375 22.3125V36.0938C35.4375 37.905 33.9675 39.375 32.1562 39.375H9.84375C8.97351 39.375 8.13891 39.0293 7.52356 38.4139C6.9082 37.7986 6.5625 36.964 6.5625 36.0938V5.90625C6.5625 4.09325 8.0325 2.625 9.84375 2.625ZM17.0625 30.1875C17.0625 29.8394 16.9242 29.5056 16.6781 29.2594C16.4319 29.0133 16.0981 28.875 15.75 28.875C15.4019 28.875 15.0681 29.0133 14.8219 29.2594C14.5758 29.5056 14.4375 29.8394 14.4375 30.1875V31.5C14.4375 31.8481 14.5758 32.1819 14.8219 32.4281C15.0681 32.6742 15.4019 32.8125 15.75 32.8125C16.0981 32.8125 16.4319 32.6742 16.6781 32.4281C16.9242 32.1819 17.0625 31.8481 17.0625 31.5V30.1875ZM21 24.9375C21.3481 24.9375 21.6819 25.0758 21.9281 25.3219C22.1742 25.5681 22.3125 25.9019 22.3125 26.25V31.5C22.3125 31.8481 22.1742 32.1819 21.9281 32.4281C21.6819 32.6742 21.3481 32.8125 21 32.8125C20.6519 32.8125 20.3181 32.6742 20.0719 32.4281C19.8258 32.1819 19.6875 31.8481 19.6875 31.5V26.25C19.6875 25.9019 19.8258 25.5681 20.0719 25.3219C20.3181 25.0758 20.6519 24.9375 21 24.9375ZM27.5625 22.3125C27.5625 21.9644 27.4242 21.6306 27.1781 21.3844C26.9319 21.1383 26.5981 21 26.25 21C25.9019 21 25.5681 21.1383 25.3219 21.3844C25.0758 21.6306 24.9375 21.9644 24.9375 22.3125V31.5C24.9375 31.8481 25.0758 32.1819 25.3219 32.4281C25.5681 32.6742 25.9019 32.8125 26.25 32.8125C26.5981 32.8125 26.9319 32.6742 27.1781 32.4281C27.4242 32.1819 27.5625 31.8481 27.5625 31.5V22.3125Z" fill="#FFA800"/>
<path d="M24.9375 9.18748C24.9405 6.97993 24.1456 4.84567 22.6992 3.17798C25.6275 3.94792 28.2987 5.48181 30.4397 7.62278C32.5806 9.76375 34.1145 12.435 34.8845 15.3632C33.2168 13.9168 31.0825 13.1219 28.875 13.125H25.5937C25.4197 13.125 25.2528 13.0558 25.1297 12.9328C25.0066 12.8097 24.9375 12.6428 24.9375 12.4687V9.18748Z" fill="#FFA800"/>
<path d="M15 25C15 25.5523 15.4477 26 16 26C16.5523 26 17 25.5523 17 25H15ZM16.7071 11.2929C16.3166 10.9024 15.6834 10.9024 15.2929 11.2929L8.92893 17.6569C8.53841 18.0474 8.53841 18.6805 8.92893 19.0711C9.31946 19.4616 9.95262 19.4616 10.3431 19.0711L16 13.4142L21.6569 19.0711C22.0474 19.4616 22.6805 19.4616 23.0711 19.0711C23.4616 18.6805 23.4616 18.0474 23.0711 17.6569L16.7071 11.2929ZM17 25V12H15L15 25H17Z" fill="white"/>
</svg>
