<svg width="33" height="37" viewBox="0 0 33 37" fill="none" xmlns="http://www.w3.org/2000/svg">
<rect width="33" height="37" rx="4" fill="#FFA800"/>
<rect x="2" y="3" width="29" height="9" rx="2" fill="white"/>
<rect x="7" y="16" width="22" height="2" rx="1" fill="white"/>
<rect x="7" y="20" width="22" height="2" rx="1" fill="white"/>
<rect x="7" y="24" width="22" height="2" rx="1" fill="white"/>
<rect x="7" y="28" width="22" height="2" rx="1" fill="white"/>
<rect x="7" y="32" width="22" height="2" rx="1" fill="white"/>
<rect x="2" y="16" width="2" height="2" rx="1" fill="white"/>
<rect x="2" y="20" width="2" height="2" rx="1" fill="white"/>
<rect x="2" y="24" width="2" height="2" rx="1" fill="white"/>
<rect x="2" y="28" width="2" height="2" rx="1" fill="white"/>
<rect x="2" y="32" width="2" height="2" rx="1" fill="white"/>
</svg>
