<svg width="22" height="20" viewBox="0 0 22 20" fill="none" xmlns="http://www.w3.org/2000/svg">
<path d="M10.1496 1.75152C10.2929 1.60841 10.4871 1.52803 10.6896 1.52803C10.8921 1.52803 11.0864 1.60841 11.2297 1.75152L20.0839 10.6058C20.1539 10.6809 20.2383 10.7411 20.332 10.7829C20.4257 10.8246 20.5269 10.8471 20.6295 10.8489C20.7321 10.8507 20.8341 10.8318 20.9292 10.7934C21.0244 10.755 21.1108 10.6978 21.1834 10.6252C21.2559 10.5526 21.3132 10.4662 21.3516 10.371C21.39 10.2759 21.4089 10.174 21.4071 10.0714C21.4053 9.96876 21.3828 9.86757 21.341 9.77383C21.2993 9.68009 21.2391 9.59573 21.164 9.52577L12.3107 0.671479C12.0978 0.458594 11.8451 0.289724 11.567 0.174512C11.2888 0.0592992 10.9907 0 10.6896 0C10.3886 0 10.0905 0.0592992 9.81231 0.174512C9.53417 0.289724 9.28144 0.458594 9.06856 0.671479L0.214267 9.52577C0.0751324 9.66996 -0.00180287 9.86303 3.20852e-05 10.0634C0.00186704 10.2638 0.0823254 10.4554 0.224078 10.597C0.36583 10.7386 0.557535 10.8189 0.757902 10.8205C0.958268 10.8222 1.15127 10.7451 1.29533 10.6058L10.1496 1.75152Z" fill="white"/>
<path d="M10.6896 3.37318L19.0028 11.6864C19.0334 11.717 19.0639 11.7455 19.0955 11.7741V18.0892C19.0955 19.1438 18.2396 19.9997 17.1851 19.9997H13.7463C13.5436 19.9997 13.3492 19.9192 13.2059 19.7759C13.0626 19.6325 12.9821 19.4382 12.9821 19.2355V14.6504C12.9821 14.4478 12.9016 14.2534 12.7583 14.1101C12.615 13.9668 12.4206 13.8862 12.2179 13.8862H9.16119C8.95852 13.8862 8.76415 13.9668 8.62084 14.1101C8.47753 14.2534 8.39701 14.4478 8.39701 14.6504V19.2355C8.39701 19.4382 8.3165 19.6325 8.17319 19.7759C8.02988 19.9192 7.83551 19.9997 7.63284 19.9997H4.19403C3.68735 19.9997 3.20142 19.7984 2.84314 19.4401C2.48486 19.0818 2.28358 18.5959 2.28358 18.0892V11.7741C2.31528 11.7457 2.3462 11.7165 2.3763 11.6864L10.6896 3.37114V3.37318Z" fill="white"/>
</svg>
