<svg width="18" height="18" viewBox="0 0 18 18" fill="none" xmlns="http://www.w3.org/2000/svg">
<path d="M0.00293122 7.50279C0.00293122 6.28539 0.00293122 5.06799 0.00293122 3.8485C0.0144161 1.61207 1.61708 0.0114849 3.85977 0.00522042C6.29596 -0.00174014 8.73215 -0.00174014 11.1683 0.00522042C13.3766 0.0114849 14.9876 1.6079 15.0012 3.82344C15.0172 6.27495 15.0172 8.7268 15.0012 11.179C14.9876 13.3716 13.4069 14.9753 11.2195 14.9962C8.7325 15.0205 6.2455 15.0205 3.75849 14.9962C1.61186 14.9774 0.0238159 13.3559 0.00606653 11.2041C-0.00541838 9.97204 0.00293122 8.74211 0.00293122 7.50279ZM7.48587 13.4979C8.68552 13.4979 9.88726 13.4979 11.0869 13.4979C12.5705 13.4896 13.4883 12.5708 13.4883 11.0819C13.4932 8.69792 13.4932 6.31463 13.4883 3.93203C13.4883 2.4463 12.557 1.51079 11.0869 1.50661C8.68552 1.50104 6.28413 1.50104 3.88273 1.50661C2.44608 1.50661 1.50117 2.45987 1.49804 3.90175C1.49178 6.30174 1.49178 8.70314 1.49804 11.1059C1.49804 12.5541 2.43772 13.4885 3.88064 13.4979C5.08447 13.5031 6.28517 13.4969 7.48587 13.4979Z" fill="black"/>
<path d="M17.996 9.57696C17.996 11.0898 17.996 12.6048 17.996 14.1166C17.9887 16.3906 16.3933 17.9912 14.1203 17.9954C11.0076 18.001 7.89448 18.001 4.78102 17.9954C4.64154 18.0035 4.50159 17.9972 4.36339 17.9766C3.97081 17.8962 3.75677 17.6394 3.75782 17.2457C3.75886 16.8521 3.98333 16.5963 4.37277 16.5149C4.54587 16.4929 4.72066 16.4873 4.89481 16.4982C7.92056 16.4982 10.9467 16.4982 13.9731 16.4982C15.5862 16.4982 16.4977 15.5888 16.4977 13.9809C16.4977 10.9879 16.4977 7.99483 16.4977 5.00179C16.4977 4.88068 16.4977 4.75852 16.4977 4.63636C16.5113 4.08196 16.7827 3.75724 17.2348 3.75202C17.6869 3.7468 17.9866 4.06524 17.9928 4.61652C18.0022 5.39854 17.9928 6.18264 17.9928 6.96362L17.996 9.57696Z" fill="black"/>
<path d="M7.48548 13.4965C6.28479 13.4965 5.08409 13.5028 3.88444 13.4965C2.44047 13.4871 1.50601 12.5568 1.50184 11.1045C1.49418 8.70453 1.49418 6.30314 1.50184 3.90035C1.50184 2.45847 2.44987 1.5094 3.88653 1.50522C6.28653 1.49826 8.68792 1.49826 11.0907 1.50522C12.5629 1.50522 13.4921 2.44491 13.4921 3.93064C13.497 6.31323 13.497 8.69653 13.4921 11.0805C13.4921 12.5694 12.5702 13.4882 11.0907 13.4965C9.88688 13.5028 8.68513 13.4976 7.48548 13.4965Z" fill="white" fill-opacity="0.5"/>
</svg>
