<svg width="42" height="42" viewBox="0 0 42 42" fill="none" xmlns="http://www.w3.org/2000/svg">
<path fill-rule="evenodd" clip-rule="evenodd" d="M13.1289 10.5H25.6029C27.1678 10.5023 28.6679 11.1256 29.7736 12.233C30.8793 13.3404 31.5004 14.8413 31.5004 16.4062V32.8125C32.8928 32.8125 34.2282 32.2594 35.2127 31.2748C36.1973 30.2902 36.7504 28.9549 36.7504 27.5625V10.689C36.7504 8.05525 34.7817 5.76975 32.0884 5.544C31.696 5.51213 31.3034 5.48296 30.9107 5.4565C30.4677 4.603 29.7988 3.88757 28.977 3.38825C28.1552 2.88893 27.212 2.62491 26.2504 2.625H23.6254C22.6638 2.62491 21.7206 2.88893 20.8988 3.38825C20.077 3.88757 19.4081 4.603 18.9652 5.4565C18.5714 5.48275 18.1777 5.5125 17.7874 5.544C15.1589 5.76625 13.2199 7.9485 13.1289 10.5ZM23.6254 5.25C22.9292 5.25 22.2615 5.52656 21.7693 6.01884C21.277 6.51113 21.0004 7.17881 21.0004 7.875H28.8754C28.8754 7.17881 28.5988 6.51113 28.1066 6.01884C27.6143 5.52656 26.9466 5.25 26.2504 5.25H23.6254Z" fill="#FFA800"/>
<path fill-rule="evenodd" clip-rule="evenodd" d="M5.25 16.4062C5.25 14.5933 6.72 13.125 8.53125 13.125H25.5938C27.4067 13.125 28.875 14.595 28.875 16.4062V36.0938C28.875 37.905 27.405 39.375 25.5938 39.375H8.53125C7.66101 39.375 6.82641 39.0293 6.21106 38.4139C5.5957 37.7986 5.25 36.964 5.25 36.0938V16.4062ZM10.5 21C10.5 20.6519 10.6383 20.3181 10.8844 20.0719C11.1306 19.8258 11.4644 19.6875 11.8125 19.6875H11.8265C12.1746 19.6875 12.5084 19.8258 12.7546 20.0719C13.0007 20.3181 13.139 20.6519 13.139 21V21.014C13.139 21.3621 13.0007 21.6959 12.7546 21.9421C12.5084 22.1882 12.1746 22.3265 11.8265 22.3265H11.8125C11.4644 22.3265 11.1306 22.1882 10.8844 21.9421C10.6383 21.6959 10.5 21.3621 10.5 21.014V21ZM14.4375 21C14.4375 20.6519 14.5758 20.3181 14.8219 20.0719C15.0681 19.8258 15.4019 19.6875 15.75 19.6875H22.3125C22.6606 19.6875 22.9944 19.8258 23.2406 20.0719C23.4867 20.3181 23.625 20.6519 23.625 21C23.625 21.3481 23.4867 21.6819 23.2406 21.9281C22.9944 22.1742 22.6606 22.3125 22.3125 22.3125H15.75C15.4019 22.3125 15.0681 22.1742 14.8219 21.9281C14.5758 21.6819 14.4375 21.3481 14.4375 21ZM10.5 26.25C10.5 25.9019 10.6383 25.5681 10.8844 25.3219C11.1306 25.0758 11.4644 24.9375 11.8125 24.9375H11.8265C12.1746 24.9375 12.5084 25.0758 12.7546 25.3219C13.0007 25.5681 13.139 25.9019 13.139 26.25V26.264C13.139 26.6121 13.0007 26.9459 12.7546 27.1921C12.5084 27.4382 12.1746 27.5765 11.8265 27.5765H11.8125C11.4644 27.5765 11.1306 27.4382 10.8844 27.1921C10.6383 26.9459 10.5 26.6121 10.5 26.264V26.25ZM14.4375 26.25C14.4375 25.9019 14.5758 25.5681 14.8219 25.3219C15.0681 25.0758 15.4019 24.9375 15.75 24.9375H22.3125C22.6606 24.9375 22.9944 25.0758 23.2406 25.3219C23.4867 25.5681 23.625 25.9019 23.625 26.25C23.625 26.5981 23.4867 26.9319 23.2406 27.1781C22.9944 27.4242 22.6606 27.5625 22.3125 27.5625H15.75C15.4019 27.5625 15.0681 27.4242 14.8219 27.1781C14.5758 26.9319 14.4375 26.5981 14.4375 26.25ZM10.5 31.5C10.5 31.1519 10.6383 30.8181 10.8844 30.5719C11.1306 30.3258 11.4644 30.1875 11.8125 30.1875H11.8265C12.1746 30.1875 12.5084 30.3258 12.7546 30.5719C13.0007 30.8181 13.139 31.1519 13.139 31.5V31.514C13.139 31.8621 13.0007 32.1959 12.7546 32.4421C12.5084 32.6882 12.1746 32.8265 11.8265 32.8265H11.8125C11.4644 32.8265 11.1306 32.6882 10.8844 32.4421C10.6383 32.1959 10.5 31.8621 10.5 31.514V31.5ZM14.4375 31.5C14.4375 31.1519 14.5758 30.8181 14.8219 30.5719C15.0681 30.3258 15.4019 30.1875 15.75 30.1875H22.3125C22.6606 30.1875 22.9944 30.3258 23.2406 30.5719C23.4867 30.8181 23.625 31.1519 23.625 31.5C23.625 31.8481 23.4867 32.1819 23.2406 32.4281C22.9944 32.6742 22.6606 32.8125 22.3125 32.8125H15.75C15.4019 32.8125 15.0681 32.6742 14.8219 32.4281C14.5758 32.1819 14.4375 31.8481 14.4375 31.5Z" fill="#FFA800"/>
</svg>
