<svg width="16" height="15" viewBox="0 0 16 15" fill="none" xmlns="http://www.w3.org/2000/svg">
<path d="M7.9996 12.1404L4.12169 14.3558C3.95037 14.4592 3.77127 14.5035 3.58439 14.4888C3.3975 14.474 3.23397 14.4149 3.09381 14.3115C2.95364 14.2081 2.84462 14.0788 2.76675 13.9234C2.68888 13.768 2.67331 13.5946 2.72003 13.4032L3.74791 9.21609L0.313855 6.40252C0.158115 6.2696 0.0609338 6.11807 0.0223104 5.94792C-0.016313 5.77778 -0.0047883 5.61177 0.0568846 5.4499C0.11918 5.28744 0.212624 5.15451 0.337216 5.05113C0.461807 4.94774 0.633121 4.88128 0.851156 4.85174L5.38318 4.47512L7.13525 0.531698C7.21312 0.354465 7.33397 0.221541 7.49781 0.132924C7.66165 0.0443082 7.82891 0 7.9996 0C8.17091 0 8.33818 0.0443082 8.50139 0.132924C8.66461 0.221541 8.78546 0.354465 8.86396 0.531698L10.616 4.47512L15.148 4.85174C15.3661 4.88128 15.5374 4.94774 15.662 5.05113C15.7866 5.15451 15.88 5.28744 15.9423 5.4499C16.0046 5.61236 16.0164 5.77867 15.9778 5.94881C15.9392 6.11895 15.8417 6.27019 15.6853 6.40252L12.2513 9.21609L13.2792 13.4032C13.3259 13.5952 13.3103 13.7689 13.2325 13.9243C13.1546 14.0796 13.0456 14.2087 12.9054 14.3115C12.7652 14.4149 12.6017 14.474 12.4148 14.4888C12.2279 14.5035 12.0488 14.4592 11.8775 14.3558L7.9996 12.1404Z" fill="#FFA800"/>
</svg>
