<svg width="24" height="24" viewBox="0 0 24 24" fill="none" xmlns="http://www.w3.org/2000/svg">
<path fill-rule="evenodd" clip-rule="evenodd" d="M12.5308 16.2792C12.3902 16.4196 12.1996 16.4985 12.0008 16.4985C11.8021 16.4985 11.6114 16.4196 11.4708 16.2792L3.97082 8.77918C3.83834 8.637 3.76622 8.44896 3.76965 8.25465C3.77308 8.06035 3.85179 7.87497 3.9892 7.73755C4.12661 7.60014 4.312 7.52143 4.5063 7.518C4.7006 7.51457 4.88865 7.5867 5.03082 7.71918L12.0008 14.6892L18.9708 7.71918C19.0395 7.64549 19.1223 7.58639 19.2143 7.5454C19.3063 7.5044 19.4056 7.48236 19.5063 7.48059C19.607 7.47881 19.707 7.49733 19.8004 7.53505C19.8938 7.57278 19.9786 7.62892 20.0499 7.70014C20.1211 7.77136 20.1772 7.85619 20.2149 7.94958C20.2527 8.04297 20.2712 8.143 20.2694 8.2437C20.2676 8.3444 20.2456 8.44372 20.2046 8.53571C20.1636 8.62771 20.1045 8.71051 20.0308 8.77918L12.5308 16.2792Z" fill="black" fill-opacity="0.25"/>
</svg>
