<svg width="29" height="28" viewBox="0 0 29 28" fill="none" xmlns="http://www.w3.org/2000/svg">
<path fill-rule="evenodd" clip-rule="evenodd" d="M14.2989 3.95777C14.8395 3.95777 15.2778 3.51954 15.2778 2.97895C15.2778 2.43837 14.8395 2.00014 14.2989 2.00014C13.7584 2.00014 13.3201 2.43837 13.3201 2.97895C13.3201 3.51954 13.7584 3.95777 14.2989 3.95777ZM14.5948 5.9434C16.1011 5.79487 17.2779 4.52434 17.2779 2.97895C17.2779 1.33372 15.9442 0 14.2989 0C12.6537 0 11.32 1.33372 11.32 2.97895C11.32 4.52295 12.4946 5.7926 13.999 5.94299V7.75588C12.5553 7.82684 11.2468 8.41166 10.2523 9.33127L8.56393 7.56103C9.15968 7.01633 9.53335 6.23277 9.53335 5.36193C9.53335 3.7167 8.19963 2.38298 6.5544 2.38298C4.90917 2.38298 3.57544 3.7167 3.57544 5.36193C3.57544 7.00716 4.90917 8.34088 6.5544 8.34088C7.11304 8.34088 7.63578 8.18711 8.08257 7.91958L9.8353 9.75728C8.90442 10.808 8.33907 12.19 8.33847 13.7041H5.9579C5.95672 12.0599 4.62346 10.7273 2.97895 10.7273C1.33372 10.7273 0 12.061 0 13.7063C0 15.3515 1.33372 16.6852 2.97895 16.6852C4.42092 16.6852 5.62359 15.6607 5.89876 14.2999H8.36765C8.49915 15.6298 9.06794 16.8311 9.92824 17.7582L8.1623 19.4425C7.61742 18.8438 6.83192 18.4681 5.95865 18.4681C4.31342 18.4681 2.9797 19.8018 2.9797 21.447C2.9797 23.0923 4.31342 24.426 5.95865 24.426C7.60388 24.426 8.9376 23.0923 8.9376 21.447C8.9376 20.8909 8.78519 20.3703 8.51984 19.9248L10.355 18.1745C11.336 19.0406 12.6045 19.5886 13.999 19.6571V22.0575C12.4947 22.2079 11.3201 23.4776 11.3201 25.0215C11.3201 26.6667 12.6538 28.0005 14.2991 28.0005C15.9443 28.0005 17.278 26.6667 17.278 25.0215C17.278 23.4761 16.1012 22.2055 14.5948 22.057V19.6571C15.8922 19.593 17.0805 19.114 18.0296 18.35L19.7453 20.1488C19.3208 20.6636 19.0658 21.3234 19.0658 22.0428C19.0658 23.688 20.3995 25.0217 22.0447 25.0217C23.69 25.0217 25.0237 23.688 25.0237 22.0428C25.0237 20.3976 23.69 19.0638 22.0447 19.0638C21.3335 19.0638 20.6805 19.3131 20.1682 19.729L18.4748 17.9535C19.4414 17.0025 20.0848 15.724 20.2253 14.2979H22.699C22.9734 15.6597 24.1766 16.6852 25.6192 16.6852C27.2644 16.6852 28.5982 15.3515 28.5982 13.7063C28.5982 12.061 27.2644 10.7273 25.6192 10.7273C23.9754 10.7273 22.6425 12.0588 22.6403 13.7021H20.2543C20.2533 12.2945 19.7641 11.0011 18.9469 9.98203L20.7509 8.26152C21.2649 8.6834 21.9226 8.93663 22.6395 8.93663C24.2847 8.93663 25.6185 7.60291 25.6185 5.95768C25.6185 4.31245 24.2847 2.97872 22.6395 2.97872C20.9943 2.97872 19.6606 4.31245 19.6606 5.95768C19.6606 6.67139 19.9115 7.32649 20.3301 7.83951L18.5513 9.53606C17.5349 8.49921 16.1425 7.83228 14.5948 7.75593V5.9434ZM22.6395 6.93649C23.1801 6.93649 23.6183 6.49826 23.6183 5.95768C23.6183 5.41709 23.1801 4.97886 22.6395 4.97886C22.0989 4.97886 21.6607 5.41709 21.6607 5.95768C21.6607 6.49826 22.0989 6.93649 22.6395 6.93649ZM25.6192 14.6851C26.1598 14.6851 26.598 14.2468 26.598 13.7063C26.598 13.1657 26.1598 12.7275 25.6192 12.7275C25.0786 12.7275 24.6404 13.1657 24.6404 13.7063C24.6404 14.2468 25.0786 14.6851 25.6192 14.6851ZM22.0447 23.0216C22.5853 23.0216 23.0235 22.5834 23.0235 22.0428C23.0235 21.5022 22.5853 21.064 22.0447 21.064C21.5042 21.064 21.0659 21.5022 21.0659 22.0428C21.0659 22.5834 21.5042 23.0216 22.0447 23.0216ZM6.93747 21.447C6.93747 21.9876 6.49924 22.4259 5.95865 22.4259C5.41807 22.4259 4.97984 21.9876 4.97984 21.447C4.97984 20.9065 5.41807 20.4682 5.95865 20.4682C6.49924 20.4682 6.93747 20.9065 6.93747 21.447ZM3.95777 13.7063C3.95777 14.2468 3.51954 14.6851 2.97895 14.6851C2.43837 14.6851 2.00014 14.2468 2.00014 13.7063C2.00014 13.1657 2.43837 12.7275 2.97895 12.7275C3.51954 12.7275 3.95777 13.1657 3.95777 13.7063ZM7.53321 5.36193C7.53321 5.90251 7.09498 6.34074 6.5544 6.34074C6.01381 6.34074 5.57558 5.90251 5.57558 5.36193C5.57558 4.82135 6.01381 4.38312 6.5544 4.38312C7.09498 4.38312 7.53321 4.82135 7.53321 5.36193ZM14.2991 26.0003C14.8397 26.0003 15.2779 25.5621 15.2779 25.0215C15.2779 24.4809 14.8397 24.0427 14.2991 24.0427C13.7585 24.0427 13.3203 24.4809 13.3203 25.0215C13.3203 25.5621 13.7585 26.0003 14.2991 26.0003ZM18.2541 13.7065C18.2541 15.8923 16.4822 17.6643 14.2964 17.6643C12.1106 17.6643 10.3386 15.8923 10.3386 13.7065C10.3386 11.5207 12.1106 9.74873 14.2964 9.74873C16.4822 9.74873 18.2541 11.5207 18.2541 13.7065Z" fill="white"/>
</svg>
