<svg width="24" height="24" viewBox="0 0 24 24" fill="none" xmlns="http://www.w3.org/2000/svg">
<path fill-rule="evenodd" clip-rule="evenodd" d="M8.603 3.77231C9.02496 3.28902 9.54673 2.90153 10.1329 2.63617C10.719 2.3708 11.3558 2.23377 12 2.23438C13.357 2.23438 14.573 2.83009 15.397 3.77231C16.0397 3.72675 16.6847 3.81906 17.2883 4.04297C17.8919 4.26688 18.4399 4.61715 18.895 5.06998C19.3509 5.52179 19.7036 6.06569 19.9291 6.66476C20.1546 7.26383 20.2477 7.90406 20.202 8.542C20.6886 8.96104 21.0787 9.47911 21.3458 10.0611C21.6129 10.643 21.7507 11.2752 21.75 11.9147C21.7506 12.5543 21.6126 13.1866 21.3453 13.7685C21.078 14.3505 20.6878 14.8685 20.201 15.2875C20.2467 15.9254 20.1536 16.5656 19.9281 17.1647C19.7026 17.7638 19.3499 18.3077 18.894 18.7595C18.4389 19.2121 17.8911 19.5623 17.2877 19.7862C16.6844 20.0101 16.0395 20.1025 15.397 20.0572C14.975 20.5404 14.4533 20.9279 13.8671 21.1933C13.281 21.4587 12.6442 21.5957 12 21.5951C11.3558 21.5957 10.719 21.4587 10.1329 21.1933C9.54673 20.9279 9.02496 20.5404 8.603 20.0572C7.96038 20.1028 7.31538 20.0107 6.71181 19.787C6.10824 19.5632 5.56023 19.2131 5.105 18.7605C4.64897 18.3086 4.29622 17.7645 4.0707 17.1652C3.84518 16.566 3.75218 15.9256 3.798 15.2875C3.31141 14.8684 2.92133 14.3504 2.65423 13.7684C2.38713 13.1865 2.24927 12.5543 2.25 11.9147C2.25 10.5674 2.85 9.36011 3.799 8.542C3.75326 7.90405 3.8463 7.26381 4.07182 6.66472C4.29734 6.06564 4.65005 5.52175 5.106 5.06998C5.56103 4.61728 6.10883 4.26709 6.71222 4.04318C7.31562 3.81928 7.96047 3.7269 8.603 3.77231ZM15.61 10.1137C15.67 10.0343 15.7134 9.94383 15.7377 9.84755C15.762 9.75128 15.7666 9.65116 15.7514 9.55308C15.7361 9.455 15.7013 9.36093 15.6489 9.27641C15.5965 9.19189 15.5276 9.11863 15.4463 9.06091C15.3649 9.00321 15.2728 8.96222 15.1753 8.94036C15.0778 8.9185 14.9769 8.91622 14.8785 8.93364C14.7801 8.95107 14.6862 8.98784 14.6023 9.04181C14.5184 9.09578 14.4462 9.16586 14.39 9.24792L11.154 13.7456L9.53 12.1332C9.38783 12.0016 9.19978 11.93 9.00548 11.9334C8.81118 11.9368 8.62579 12.015 8.48838 12.1514C8.35097 12.2878 8.27226 12.4719 8.26883 12.6648C8.2654 12.8577 8.33752 13.0444 8.47 13.1856L10.72 15.4195C10.797 15.4959 10.8898 15.5547 10.992 15.5919C11.0942 15.6291 11.2033 15.6438 11.3118 15.6349C11.4202 15.626 11.5255 15.5938 11.6201 15.5405C11.7148 15.4872 11.7967 15.4141 11.86 15.3262L15.61 10.1137Z" fill="#00B1F4"/>
</svg>
