<svg width="7" height="11" viewBox="0 0 7 11" fill="none" xmlns="http://www.w3.org/2000/svg">
<path d="M3.71967 5.49877C3.40034 5.17475 3.08964 4.85951 2.77895 4.54339C1.97027 3.7206 1.15987 2.90045 0.354641 2.07502C0.0249566 1.73695 -0.0777468 1.326 0.0542998 0.871136C0.186346 0.415397 0.495318 0.129133 0.951871 0.0299066C1.37218 -0.0614165 1.74156 0.0580065 2.04622 0.366223C2.72371 1.05115 3.39775 1.73959 4.07266 2.42715C4.79503 3.163 5.51913 3.89798 6.2415 4.63559C6.62815 5.02986 6.70927 5.61556 6.44259 6.0915C6.38649 6.1916 6.314 6.28556 6.2346 6.36722C4.84163 7.78888 3.44695 9.20878 2.05053 10.6261C1.7079 10.9738 1.29191 11.0844 0.831907 10.9351C0.374491 10.7867 0.0974524 10.4548 0.0189151 9.97186C-0.0475397 9.56178 0.0758759 9.20439 0.36586 8.90847C1.2548 8.00402 2.14461 7.09869 3.03441 6.19424C3.25966 5.96417 3.48578 5.73586 3.71967 5.49877Z" fill="#FFA800"/>
</svg>
