<svg width="8" height="7" viewBox="0 0 8 7" fill="none" xmlns="http://www.w3.org/2000/svg">
<path d="M3.9998 5.86432L2.06084 6.93445C1.97519 6.98439 1.88564 7.0058 1.79219 6.99866C1.69875 6.99153 1.61699 6.96299 1.5469 6.91305C1.47682 6.86311 1.42231 6.80062 1.38338 6.72557C1.34444 6.65051 1.33665 6.56676 1.36002 6.4743L1.87396 4.45175L0.156927 3.09268C0.0790577 3.02847 0.0304669 2.95528 0.0111552 2.87309C-0.00815649 2.7909 -0.00239415 2.71072 0.0284423 2.63252C0.0595902 2.55405 0.106312 2.48984 0.168608 2.4399C0.230904 2.38996 0.31656 2.35786 0.425578 2.34359L2.69159 2.16167L3.56762 0.256832C3.60656 0.171221 3.66699 0.107013 3.7489 0.064208C3.83082 0.0214027 3.91446 0 3.9998 0C4.08546 0 4.16909 0.0214027 4.2507 0.064208C4.3323 0.107013 4.39273 0.171221 4.43198 0.256832L5.30801 2.16167L7.57402 2.34359C7.68304 2.35786 7.7687 2.38996 7.83099 2.4399C7.89329 2.48984 7.94001 2.55405 7.97116 2.63252C8.00231 2.711 8.00822 2.79133 7.98891 2.87352C7.9696 2.9557 7.92086 3.02876 7.84267 3.09268L6.12565 4.45175L6.63959 6.4743C6.66295 6.56704 6.65516 6.65094 6.61623 6.72599C6.57729 6.80104 6.52278 6.8634 6.4527 6.91305C6.38262 6.96299 6.30085 6.99153 6.20741 6.99866C6.11397 7.0058 6.02441 6.98439 5.93876 6.93445L3.9998 5.86432Z" fill="white"/>
</svg>
