<svg width="30" height="30" viewBox="0 0 30 30" fill="none" xmlns="http://www.w3.org/2000/svg">
<path fill-rule="evenodd" clip-rule="evenodd" d="M10.3125 8.4375C10.3125 7.1943 10.8064 6.00201 11.6854 5.12294C12.5645 4.24386 13.7568 3.75 15 3.75C16.2432 3.75 17.4355 4.24386 18.3146 5.12294C19.1936 6.00201 19.6875 7.1943 19.6875 8.4375C19.6875 9.6807 19.1936 10.873 18.3146 11.7521C17.4355 12.6311 16.2432 13.125 15 13.125C13.7568 13.125 12.5645 12.6311 11.6854 11.7521C10.8064 10.873 10.3125 9.6807 10.3125 8.4375ZM19.6875 12.1875C19.6875 11.1929 20.0826 10.2391 20.7858 9.53585C21.4891 8.83259 22.4429 8.4375 23.4375 8.4375C24.4321 8.4375 25.3859 8.83259 26.0892 9.53585C26.7924 10.2391 27.1875 11.1929 27.1875 12.1875C27.1875 13.1821 26.7924 14.1359 26.0892 14.8392C25.3859 15.5424 24.4321 15.9375 23.4375 15.9375C22.4429 15.9375 21.4891 15.5424 20.7858 14.8392C20.0826 14.1359 19.6875 13.1821 19.6875 12.1875ZM2.8125 12.1875C2.8125 11.1929 3.20759 10.2391 3.91085 9.53585C4.61411 8.83259 5.56794 8.4375 6.5625 8.4375C7.55706 8.4375 8.51089 8.83259 9.21415 9.53585C9.91741 10.2391 10.3125 11.1929 10.3125 12.1875C10.3125 13.1821 9.91741 14.1359 9.21415 14.8392C8.51089 15.5424 7.55706 15.9375 6.5625 15.9375C5.56794 15.9375 4.61411 15.5424 3.91085 14.8392C3.20759 14.1359 2.8125 13.1821 2.8125 12.1875ZM7.8875 18.8962C8.64994 17.7013 9.70135 16.7178 10.9445 16.0368C12.1877 15.3558 13.5825 14.9992 15 15C16.1873 14.9989 17.3614 15.2486 18.4455 15.7327C19.5296 16.2168 20.4992 16.9244 21.2909 17.8092C22.0826 18.694 22.6785 19.736 23.0396 20.8671C23.4007 21.9981 23.5188 23.1926 23.3862 24.3725C23.37 24.5191 23.3195 24.6598 23.2387 24.7831C23.1579 24.9065 23.0491 25.0091 22.9212 25.0825C20.5107 26.4657 17.7792 27.1915 15 27.1875C12.1187 27.1875 9.4125 26.4225 7.07875 25.0825C6.95086 25.0091 6.8421 24.9065 6.7613 24.7831C6.68051 24.6598 6.62995 24.5191 6.61375 24.3725C6.40382 22.4558 6.85308 20.5247 7.8875 18.8975V18.8962Z" fill="white"/>
<path d="M6.3526 17.8184C5.11979 19.7213 4.54542 21.9762 4.7176 24.2371C3.96698 24.1233 3.22873 23.9392 2.5126 23.6871L2.36885 23.6371C2.2406 23.5916 2.12829 23.5099 2.04554 23.4018C1.96278 23.2938 1.91313 23.164 1.9026 23.0284L1.8901 22.8771C1.83961 22.2496 1.91605 21.6183 2.11486 21.0209C2.31367 20.4236 2.63077 19.8724 3.04726 19.4002C3.46374 18.9281 3.97106 18.5447 4.53895 18.2729C5.10684 18.0012 5.72366 17.8466 6.3526 17.8184ZM25.2826 24.2371C25.4548 21.9762 24.8804 19.7213 23.6476 17.8184C24.2765 17.8466 24.8934 18.0012 25.4613 18.2729C26.0291 18.5447 26.5365 18.9281 26.9529 19.4002C27.3694 19.8724 27.6865 20.4236 27.8853 21.0209C28.0842 21.6183 28.1606 22.2496 28.1101 22.8771L28.0976 23.0284C28.0868 23.1638 28.0371 23.2933 27.9543 23.4011C27.8716 23.5089 27.7594 23.5904 27.6313 23.6359L27.4876 23.6859C26.7789 23.9359 26.0426 24.1221 25.2826 24.2371Z" fill="white"/>
</svg>
