<svg width="22" height="23" viewBox="0 0 22 23" fill="none" xmlns="http://www.w3.org/2000/svg">
<g filter="url(#filter0_d_400_2342)">
<path d="M12.0476 13.2663L9.00883 11.549C8.6121 11.9885 8.09697 12.2942 7.53038 12.4263C6.96379 12.5585 6.37195 12.511 5.83176 12.29C5.29157 12.069 4.82803 11.6847 4.50136 11.1871C4.17469 10.6895 4 10.1016 4 9.49983C4 8.89801 4.17469 8.31011 4.50136 7.81253C4.82803 7.31494 5.29157 6.93068 5.83176 6.70968C6.37195 6.48869 6.96379 6.44117 7.53038 6.57331C8.09697 6.70545 8.6121 7.01114 9.00883 7.45064L12.0483 5.7333C11.876 5.02534 11.9588 4.27657 12.2812 3.62733C12.6035 2.97809 13.1433 2.47297 13.7994 2.20666C14.4554 1.94035 15.1827 1.93112 15.8448 2.18072C16.5069 2.43031 17.0585 2.92159 17.3961 3.56246C17.7337 4.20332 17.8341 4.94978 17.6786 5.6619C17.523 6.37402 17.1222 7.0029 16.5512 7.43068C15.9802 7.85845 15.2783 8.05573 14.577 7.98555C13.8756 7.91536 13.2231 7.58253 12.7416 7.04943L9.70213 8.76677C9.81879 9.24775 9.81879 9.75116 9.70213 10.2321L12.7416 11.9495C13.2233 11.4166 13.876 11.0841 14.5774 11.0143C15.2787 10.9445 15.9805 11.1421 16.5513 11.5702C17.1221 11.9982 17.5227 12.6273 17.6779 13.3394C17.8331 14.0516 17.7323 14.798 17.3945 15.4387C17.0566 16.0794 16.5049 16.5704 15.8427 16.8197C15.1804 17.069 14.4532 17.0595 13.7973 16.7929C13.1413 16.5263 12.6018 16.021 12.2797 15.3716C11.9576 14.7223 11.8751 13.9735 12.0476 13.2656V13.2663ZM6.89492 10.9993C7.27879 10.9993 7.64694 10.8413 7.91838 10.56C8.18982 10.2787 8.34231 9.89724 8.34231 9.49945C8.34231 9.10166 8.18982 8.72017 7.91838 8.43889C7.64694 8.15761 7.27879 7.99959 6.89492 7.99959C6.51105 7.99959 6.1429 8.15761 5.87147 8.43889C5.60003 8.72017 5.44754 9.10166 5.44754 9.49945C5.44754 9.89724 5.60003 10.2787 5.87147 10.56C6.1429 10.8413 6.51105 10.9993 6.89492 10.9993ZM14.8556 6.49973C15.2394 6.49973 15.6076 6.34171 15.879 6.06043C16.1504 5.77916 16.3029 5.39766 16.3029 4.99987C16.3029 4.60209 16.1504 4.22059 15.879 3.93931C15.6076 3.65803 15.2394 3.50001 14.8556 3.50001C14.4717 3.50001 14.1035 3.65803 13.8321 3.93931C13.5607 4.22059 13.4082 4.60209 13.4082 4.99987C13.4082 5.39766 13.5607 5.77916 13.8321 6.06043C14.1035 6.34171 14.4717 6.49973 14.8556 6.49973ZM14.8556 15.4989C15.2394 15.4989 15.6076 15.3409 15.879 15.0596C16.1504 14.7783 16.3029 14.3968 16.3029 13.999C16.3029 13.6012 16.1504 13.2197 15.879 12.9385C15.6076 12.6572 15.2394 12.4992 14.8556 12.4992C14.4717 12.4992 14.1035 12.6572 13.8321 12.9385C13.5607 13.2197 13.4082 13.6012 13.4082 13.999C13.4082 14.3968 13.5607 14.7783 13.8321 15.0596C14.1035 15.3409 14.4717 15.4989 14.8556 15.4989Z" fill="#FFA800"/>
</g>
<defs>
<filter id="filter0_d_400_2342" x="0" y="0" width="21.75" height="23" filterUnits="userSpaceOnUse" color-interpolation-filters="sRGB">
<feFlood flood-opacity="0" result="BackgroundImageFix"/>
<feColorMatrix in="SourceAlpha" type="matrix" values="0 0 0 0 0 0 0 0 0 0 0 0 0 0 0 0 0 0 127 0" result="hardAlpha"/>
<feOffset dy="2"/>
<feGaussianBlur stdDeviation="2"/>
<feComposite in2="hardAlpha" operator="out"/>
<feColorMatrix type="matrix" values="0 0 0 0 0.313726 0 0 0 0 0.215686 0 0 0 0 0.87451 0 0 0 0.3 0"/>
<feBlend mode="normal" in2="BackgroundImageFix" result="effect1_dropShadow_400_2342"/>
<feBlend mode="normal" in="SourceGraphic" in2="effect1_dropShadow_400_2342" result="shape"/>
</filter>
</defs>
</svg>
