<svg width="33" height="32" viewBox="0 0 33 32" fill="none" xmlns="http://www.w3.org/2000/svg">
<path fill-rule="evenodd" clip-rule="evenodd" d="M16.3415 4.80882C17.1171 4.80882 17.7459 4.18007 17.7459 3.40446C17.7459 2.62885 17.1171 2.00009 16.3415 2.00009C15.5659 2.00009 14.9372 2.62885 14.9372 3.40446C14.9372 4.18007 15.5659 4.80882 16.3415 4.80882ZM16.6798 6.79232C18.4012 6.62249 19.746 5.17052 19.746 3.40446C19.746 1.52423 18.2218 0 16.3415 0C14.4613 0 12.9371 1.52423 12.9371 3.40446C12.9371 5.16906 14.2796 6.6201 15.9989 6.79189V8.86431C14.3491 8.9454 12.8535 9.61375 11.7171 10.6647L9.78705 8.64114C10.468 8.01864 10.8951 7.1231 10.8951 6.12782C10.8951 4.24759 9.37084 2.72336 7.49061 2.72336C5.61038 2.72336 4.08615 4.24759 4.08615 6.12782C4.08615 8.00805 5.61038 9.53227 7.49061 9.53227C8.12899 9.53227 8.72633 9.35657 9.23692 9.05088L11.2405 11.1516C10.1768 12.3523 9.53069 13.9315 9.52986 15.6615H6.80891C6.80757 13.7825 5.28386 12.2596 3.40446 12.2596C1.52423 12.2596 0 13.7838 0 15.664C0 17.5443 1.52423 19.0685 3.40446 19.0685C5.05239 19.0685 6.42685 17.8976 6.74132 16.3424H9.56314C9.71329 17.8623 10.3632 19.2353 11.3462 20.2948L9.32818 22.2196C8.70547 21.5354 7.80777 21.106 6.80977 21.106C4.92954 21.106 3.40531 22.6302 3.40531 24.5105C3.40531 26.3907 4.92954 27.9149 6.80977 27.9149C8.69 27.9149 10.2142 26.3907 10.2142 24.5105C10.2142 23.8749 10.04 23.2799 9.73679 22.7708L11.8339 20.7706C12.9552 21.7607 14.405 22.3871 15.9989 22.4655V25.2081C14.2796 25.3799 12.9371 26.8309 12.9371 28.5955C12.9371 30.4757 14.4613 32 16.3415 32C18.2218 32 19.746 30.4757 19.746 28.5955C19.746 26.8295 18.4012 25.3775 16.6798 25.2077V22.4654C18.1626 22.3923 19.5206 21.8448 20.6053 20.9716L22.5655 23.0269C22.0805 23.6152 21.7891 24.3693 21.7891 25.1913C21.7891 27.0715 23.3133 28.5958 25.1935 28.5958C27.0738 28.5958 28.598 27.0715 28.598 25.1913C28.598 23.3111 27.0738 21.7869 25.1935 21.7869C24.3807 21.7869 23.6343 22.0718 23.0489 22.5472L21.1141 20.5185C22.2187 19.4317 22.9539 17.9706 23.1146 16.3408H25.9414C26.2552 17.8968 27.6301 19.0685 29.2786 19.0685C31.1588 19.0685 32.683 17.5443 32.683 15.664C32.683 13.7838 31.1588 12.2596 29.2786 12.2596C27.3997 12.2596 25.8764 13.7816 25.8741 15.6599H23.1477C23.1465 14.0512 22.5875 12.5731 21.6536 11.4084L23.7154 9.44199C24.3027 9.92389 25.0542 10.2131 25.8733 10.2131C27.7535 10.2131 29.2777 8.68888 29.2777 6.80865C29.2777 4.92842 27.7535 3.4042 25.8733 3.4042C23.993 3.4042 22.4688 4.92842 22.4688 6.80865C22.4688 7.62456 22.7558 8.37342 23.2344 8.9598L21.2014 10.8988C20.0399 9.71381 18.4486 8.95162 16.6798 8.86437V6.79232ZM25.8733 8.21302C26.6489 8.21302 27.2776 7.58426 27.2776 6.80865C27.2776 6.03304 26.6489 5.40429 25.8733 5.40429C25.0977 5.40429 24.4689 6.03304 24.4689 6.80865C24.4689 7.58426 25.0977 8.21302 25.8733 8.21302ZM29.2786 17.0684C30.0542 17.0684 30.6829 16.4396 30.6829 15.664C30.6829 14.8884 30.0542 14.2597 29.2786 14.2597C28.503 14.2597 27.8742 14.8884 27.8742 15.664C27.8742 16.4396 28.503 17.0684 29.2786 17.0684ZM25.1935 26.5957C25.9692 26.5957 26.5979 25.9669 26.5979 25.1913C26.5979 24.4157 25.9692 23.7869 25.1935 23.7869C24.4179 23.7869 23.7892 24.4157 23.7892 25.1913C23.7892 25.9669 24.4179 26.5957 25.1935 26.5957ZM8.21414 24.5105C8.21414 25.2861 7.58538 25.9148 6.80977 25.9148C6.03416 25.9148 5.4054 25.2861 5.4054 24.5105C5.4054 23.7349 6.03416 23.1061 6.80977 23.1061C7.58538 23.1061 8.21414 23.7349 8.21414 24.5105ZM4.80882 15.664C4.80882 16.4396 4.18007 17.0684 3.40446 17.0684C2.62885 17.0684 2.00009 16.4396 2.00009 15.664C2.00009 14.8884 2.62885 14.2597 3.40446 14.2597C4.18007 14.2597 4.80882 14.8884 4.80882 15.664ZM8.89498 6.12782C8.89498 6.90343 8.26622 7.53218 7.49061 7.53218C6.715 7.53218 6.08624 6.90343 6.08624 6.12782C6.08624 5.35221 6.715 4.72345 7.49061 4.72345C8.26622 4.72345 8.89498 5.35221 8.89498 6.12782ZM16.3415 29.9999C17.1171 29.9999 17.7459 29.3711 17.7459 28.5955C17.7459 27.8199 17.1171 27.1911 16.3415 27.1911C15.5659 27.1911 14.9372 27.8199 14.9372 28.5955C14.9372 29.3711 15.5659 29.9999 16.3415 29.9999ZM21.1476 15.6649C21.1476 18.3207 18.9946 20.4737 16.3388 20.4737C13.6829 20.4737 11.5299 18.3207 11.5299 15.6649C11.5299 13.009 13.6829 10.8561 16.3388 10.8561C18.9946 10.8561 21.1476 13.009 21.1476 15.6649Z" fill="#FFA800"/>
</svg>
