<svg width="42" height="42" viewBox="0 0 42 42" fill="none" xmlns="http://www.w3.org/2000/svg">
<path fill-rule="evenodd" clip-rule="evenodd" d="M3.9375 3.9375C3.5894 3.9375 3.25556 4.07578 3.00942 4.32192C2.76328 4.56806 2.625 4.9019 2.625 5.25C2.625 5.5981 2.76328 5.93194 3.00942 6.17808C3.25556 6.42422 3.5894 6.5625 3.9375 6.5625H5.25V24.9375C5.25 26.3299 5.80312 27.6652 6.78769 28.6498C7.77226 29.6344 9.10761 30.1875 10.5 30.1875H12.6175L10.5665 36.3353C10.4565 36.6657 10.4823 37.0263 10.6382 37.3378C10.7941 37.6492 11.0673 37.886 11.3977 37.996C11.7282 38.106 12.0888 38.0802 12.4003 37.9243C12.7117 37.7684 12.9485 37.4952 13.0585 37.1648L13.6342 35.4375H28.3657L28.9432 37.1648C29.0627 37.4825 29.3007 37.7416 29.6072 37.8876C29.9136 38.0336 30.2647 38.0553 30.5868 37.9479C30.9089 37.8405 31.1768 37.6126 31.3343 37.3119C31.4919 37.0112 31.5268 36.6611 31.4318 36.3353L29.3843 30.1875H31.5C32.8924 30.1875 34.2277 29.6344 35.2123 28.6498C36.1969 27.6652 36.75 26.3299 36.75 24.9375V6.5625H38.0625C38.4106 6.5625 38.7444 6.42422 38.9906 6.17808C39.2367 5.93194 39.375 5.5981 39.375 5.25C39.375 4.9019 39.2367 4.56806 38.9906 4.32192C38.7444 4.07578 38.4106 3.9375 38.0625 3.9375H3.9375ZM14.5075 32.8125L15.3825 30.1875H26.6175L27.4925 32.8125H14.5075ZM27.5625 11.8125C27.5625 11.4644 27.4242 11.1306 27.1781 10.8844C26.9319 10.6383 26.5981 10.5 26.25 10.5C25.9019 10.5 25.5681 10.6383 25.3219 10.8844C25.0758 11.1306 24.9375 11.4644 24.9375 11.8125V22.3125C24.9375 22.6606 25.0758 22.9944 25.3219 23.2406C25.5681 23.4867 25.9019 23.625 26.25 23.625C26.5981 23.625 26.9319 23.4867 27.1781 23.2406C27.4242 22.9944 27.5625 22.6606 27.5625 22.3125V11.8125ZM22.3125 15.75C22.3125 15.4019 22.1742 15.0681 21.9281 14.8219C21.6819 14.5758 21.3481 14.4375 21 14.4375C20.6519 14.4375 20.3181 14.5758 20.0719 14.8219C19.8258 15.0681 19.6875 15.4019 19.6875 15.75V22.3125C19.6875 22.6606 19.8258 22.9944 20.0719 23.2406C20.3181 23.4867 20.6519 23.625 21 23.625C21.3481 23.625 21.6819 23.4867 21.9281 23.2406C22.1742 22.9944 22.3125 22.6606 22.3125 22.3125V15.75ZM17.0625 19.6875C17.0625 19.3394 16.9242 19.0056 16.6781 18.7594C16.4319 18.5133 16.0981 18.375 15.75 18.375C15.4019 18.375 15.0681 18.5133 14.8219 18.7594C14.5758 19.0056 14.4375 19.3394 14.4375 19.6875V22.3125C14.4375 22.6606 14.5758 22.9944 14.8219 23.2406C15.0681 23.4867 15.4019 23.625 15.75 23.625C16.0981 23.625 16.4319 23.4867 16.6781 23.2406C16.9242 22.9944 17.0625 22.6606 17.0625 22.3125V19.6875Z" fill="#FFA800"/>
</svg>
