<svg width="20" height="20" viewBox="0 0 20 20" fill="none" xmlns="http://www.w3.org/2000/svg">
<path d="M13.75 8.75V5.625C13.75 4.63044 13.3549 3.67661 12.6516 2.97335C11.9484 2.27009 10.9946 1.875 10 1.875C9.00544 1.875 8.05161 2.27009 7.34835 2.97335C6.64509 3.67661 6.25 4.63044 6.25 5.625V8.75M5.625 18.125H14.375C14.8723 18.125 15.3492 17.9275 15.7008 17.5758C16.0525 17.2242 16.25 16.7473 16.25 16.25V10.625C16.25 10.1277 16.0525 9.65081 15.7008 9.29917C15.3492 8.94754 14.8723 8.75 14.375 8.75H5.625C5.12772 8.75 4.65081 8.94754 4.29917 9.29917C3.94754 9.65081 3.75 10.1277 3.75 10.625V16.25C3.75 16.7473 3.94754 17.2242 4.29917 17.5758C4.65081 17.9275 5.12772 18.125 5.625 18.125Z" stroke="white" stroke-width="1.5" stroke-linecap="round" stroke-linejoin="round"/>
<g clip-path="url(#clip0_415_93)">
<path d="M11.2497 13C11.2497 13.3315 11.118 13.6495 10.8836 13.8839C10.6491 14.1183 10.3312 14.25 9.99967 14.25C9.66815 14.25 9.3502 14.1183 9.11578 13.8839C8.88136 13.6495 8.74967 13.3315 8.74967 13C8.74967 12.6685 8.88136 12.3505 9.11578 12.1161C9.3502 11.8817 9.66815 11.75 9.99967 11.75C10.3312 11.75 10.6491 11.8817 10.8836 12.1161C11.118 12.3505 11.2497 12.6685 11.2497 13ZM7.5 17.706C7.51071 17.0501 7.77878 16.4247 8.24639 15.9647C8.71401 15.5046 9.3437 15.2468 9.99967 15.2468C10.6556 15.2468 11.2853 15.5046 11.7529 15.9647C12.2206 16.4247 12.4886 17.0501 12.4993 17.706C11.7151 18.0656 10.8624 18.2512 9.99967 18.25C9.10767 18.25 8.261 18.0553 7.5 17.706Z" stroke="white" stroke-width="0.5" stroke-linecap="round" stroke-linejoin="round"/>
</g>
<defs>
<clipPath id="clip0_415_93">
<rect width="8" height="8" fill="white" transform="translate(6 10)"/>
</clipPath>
</defs>
</svg>
