<svg width="8" height="5" viewBox="0 0 8 5" fill="none" xmlns="http://www.w3.org/2000/svg">
<path d="M4.67958 0.326085L7.50567 3.15217C7.84987 3.49638 7.92668 3.89022 7.7361 4.3337C7.54552 4.77717 7.20603 4.99928 6.71762 5L1.1198 5C0.630667 5 0.290812 4.7779 0.100232 4.3337C-0.0903482 3.88949 -0.0131747 3.49565 0.331753 3.15217L3.15784 0.326085C3.26654 0.21739 3.38429 0.135869 3.5111 0.0815205C3.63791 0.0271725 3.77378 -2.07321e-06 3.91871 -2.07321e-06C4.06364 -2.07321e-06 4.19951 0.0271725 4.32632 0.0815205C4.45313 0.135869 4.57088 0.21739 4.67958 0.326085Z" fill="#FF0000"/>
</svg>
