<svg width="38" height="38" viewBox="0 0 38 38" fill="none" xmlns="http://www.w3.org/2000/svg">
<path fill-rule="evenodd" clip-rule="evenodd" d="M13.0625 10.6875C13.0625 9.11278 13.6881 7.60255 14.8016 6.48905C15.9151 5.37556 17.4253 4.75 19 4.75C20.5747 4.75 22.0849 5.37556 23.1984 6.48905C24.3119 7.60255 24.9375 9.11278 24.9375 10.6875C24.9375 12.2622 24.3119 13.7724 23.1984 14.8859C22.0849 15.9994 20.5747 16.625 19 16.625C17.4253 16.625 15.9151 15.9994 14.8016 14.8859C13.6881 13.7724 13.0625 12.2622 13.0625 10.6875ZM24.9375 15.4375C24.9375 14.1777 25.4379 12.9695 26.3287 12.0787C27.2195 11.1879 28.4277 10.6875 29.6875 10.6875C30.9473 10.6875 32.1555 11.1879 33.0463 12.0787C33.9371 12.9695 34.4375 14.1777 34.4375 15.4375C34.4375 16.6973 33.9371 17.9055 33.0463 18.7963C32.1555 19.6871 30.9473 20.1875 29.6875 20.1875C28.4277 20.1875 27.2195 19.6871 26.3287 18.7963C25.4379 17.9055 24.9375 16.6973 24.9375 15.4375ZM3.5625 15.4375C3.5625 14.1777 4.06295 12.9695 4.95374 12.0787C5.84454 11.1879 7.05272 10.6875 8.3125 10.6875C9.57228 10.6875 10.7805 11.1879 11.6713 12.0787C12.5621 12.9695 13.0625 14.1777 13.0625 15.4375C13.0625 16.6973 12.5621 17.9055 11.6713 18.7963C10.7805 19.6871 9.57228 20.1875 8.3125 20.1875C7.05272 20.1875 5.84454 19.6871 4.95374 18.7963C4.06295 17.9055 3.5625 16.6973 3.5625 15.4375ZM9.99083 23.9352C10.9566 22.4216 12.2884 21.1759 13.8631 20.3133C15.4378 19.4507 17.2045 18.999 19 19C20.5039 18.9986 21.9911 19.3149 23.3643 19.9281C24.7375 20.5413 25.9657 21.4376 26.9685 22.5583C27.9713 23.6791 28.7261 24.999 29.1835 26.4316C29.6408 27.8643 29.7905 29.3773 29.6226 30.8718C29.6021 31.0575 29.538 31.2357 29.4357 31.392C29.3333 31.5482 29.1956 31.6782 29.0336 31.7712C25.9802 33.5232 22.5203 34.4426 19 34.4375C15.3504 34.4375 11.9225 33.4685 8.96642 31.7712C8.80443 31.6782 8.66666 31.5482 8.56432 31.392C8.46198 31.2357 8.39794 31.0575 8.37742 30.8718C8.1115 28.444 8.68056 25.998 9.99083 23.9368V23.9352Z" fill="#FFA800"/>
<path d="M8.04663 22.5688C6.48507 24.9793 5.75753 27.8355 5.97563 30.6993C5.02485 30.5551 4.08973 30.3219 3.18263 30.0026L3.00054 29.9393C2.83809 29.8816 2.69583 29.7781 2.59101 29.6412C2.48619 29.5044 2.4233 29.3401 2.40996 29.1682L2.39413 28.9766C2.33017 28.1817 2.42699 27.3821 2.67882 26.6254C2.93064 25.8688 3.33231 25.1706 3.85986 24.5726C4.3874 23.9745 5.03001 23.4889 5.74934 23.1446C6.46866 22.8004 7.24997 22.6046 8.04663 22.5688ZM32.0246 30.6993C32.2427 27.8355 31.5152 24.9793 29.9536 22.5688C30.7503 22.6046 31.5316 22.8004 32.2509 23.1446C32.9702 23.4889 33.6129 23.9745 34.1404 24.5726C34.6679 25.1706 35.0696 25.8688 35.3214 26.6254C35.5733 27.3821 35.6701 28.1817 35.6061 28.9766L35.5903 29.1682C35.5767 29.3398 35.5136 29.5037 35.4088 29.6403C35.304 29.7768 35.1619 29.8801 34.9997 29.9377L34.8176 30.001C33.9199 30.3177 32.9873 30.5536 32.0246 30.6993Z" fill="#FFA800"/>
</svg>
